<svg width="336" height="345" viewBox="0 0 336 345" fill="none" xmlns="http://www.w3.org/2000/svg">
<g filter="url(#filter0_d_74:371)">
<path d="M229.492 61.4923L290.985 168L229.492 274.508L106.508 274.508L45.0155 168L106.508 61.4923L229.492 61.4923Z" fill="url(#paint0_linear_74:371)"/>
</g>
<g clip-path="url(#clip0_74:371)">
<path d="M144.653 130.776L144.653 130.776C143.473 131.83 143.37 133.641 144.425 134.821L148.874 139.802L146.561 139.802C125.782 139.802 108.879 156.706 108.879 177.484C108.879 198.263 125.782 215.167 146.561 215.167C167.368 215.167 183.07 198.235 183.07 177.484C183.07 177.341 183.073 177.2 183.076 177.056L183.076 177.055L183.076 177.055C183.079 176.914 183.082 176.768 183.081 176.627C183.08 176.354 183.067 176.047 182.992 175.763C182.915 175.465 182.759 175.149 182.444 174.92C182.138 174.697 181.766 174.619 181.379 174.619C180.998 174.619 180.616 174.695 180.312 174.943C179.999 175.2 179.884 175.546 179.842 175.834C179.801 176.111 179.816 176.413 179.831 176.67C179.835 176.725 179.838 176.779 179.842 176.833C179.856 177.052 179.869 177.262 179.869 177.484C179.869 195.068 164.215 209.437 146.561 209.437C128.943 209.437 114.609 195.102 114.609 177.484C114.609 159.866 128.943 145.532 146.561 145.532L148.874 145.532L144.425 150.512C143.37 151.692 143.473 153.503 144.652 154.557C145.833 155.612 147.644 155.509 148.698 154.329L148.199 153.883L148.698 154.329L156.483 145.615C157.984 143.934 157.984 141.399 156.483 139.718L148.698 131.004C148.132 130.37 147.347 130.048 146.561 130.048C145.882 130.048 145.199 130.288 144.653 130.776Z" fill="white" stroke="white" stroke-width="1.33928"/>
<path d="M130.9 180.985C130.9 179.751 129.899 178.751 128.666 178.751C127.432 178.751 126.431 179.751 126.431 180.985L130.9 180.985ZM126.431 188.805L126.431 191.039L130.9 191.039L130.9 188.805L126.431 188.805ZM126.431 180.985L126.431 188.805L130.9 188.805L130.9 180.985L126.431 180.985Z" fill="white"/>
<path d="M139.836 175.4C139.836 174.166 138.836 173.166 137.602 173.166C136.368 173.166 135.368 174.166 135.368 175.4L139.836 175.4ZM135.368 188.805L135.368 191.039L139.836 191.039L139.836 188.805L135.368 188.805ZM135.368 175.4L135.368 188.805L139.836 188.805L139.836 175.4L135.368 175.4Z" fill="white"/>
<path d="M148.773 172.049C148.773 170.815 147.772 169.815 146.539 169.815C145.305 169.815 144.304 170.815 144.304 172.049L148.773 172.049ZM144.304 188.805L144.304 191.039L148.773 191.039L148.773 188.805L144.304 188.805ZM144.304 172.049L144.304 188.805L148.773 188.805L148.773 172.049L144.304 172.049Z" fill="white"/>
<path d="M157.709 168.698C157.709 167.464 156.709 166.464 155.475 166.464C154.241 166.464 153.241 167.464 153.241 168.698L157.709 168.698ZM153.241 188.805L153.241 191.039L157.709 191.039L157.709 188.805L153.241 188.805ZM153.241 168.698L153.241 188.805L157.709 188.805L157.709 168.698L153.241 168.698Z" fill="white"/>
<path d="M166.646 164.229C166.646 162.996 165.645 161.995 164.412 161.995C163.178 161.995 162.177 162.996 162.177 164.229H166.646ZM162.177 188.805V191.039H166.646V188.805H162.177ZM162.177 164.229V188.805H166.646V164.229H162.177Z" fill="white"/>
</g>
<path d="M173.6 231.073H182.333V239.2H190.467V230.311H199.2V222.488H190.766L190.666 213.6H182.233L182.133 222.488H173.6V231.073Z" fill="white"/>
<path d="M202.399 202.102H208.946V207.2H215.053V201.646H221.599V196.755H215.297L215.199 191.2H208.897L208.799 196.755H202.399V202.102Z" fill="white"/>
<path d="M199.2 131.716H203.579V136.8H207.621V131.235H212V126.365H207.789L207.705 120.8H203.494L203.452 126.365H199.2V131.716Z" fill="white"/>
<path d="M212 163.738H217.466V168.8H222.533V163.24H228V158.359H222.711L222.666 152.8H217.377L217.333 158.359H212V163.738Z" fill="white"/>
<path d="M180 111.346H183.295V114.401H186.304V111.055H189.6V108.146H186.447L186.4 104.801H183.247L183.2 108.146H180V111.346Z" fill="white"/>
<path d="M154.399 104.954H157.675V108H160.724V104.666H163.999V101.735H160.837L160.781 98.4004H157.618V101.735H154.399V104.954Z" fill="white"/>
<path d="M132 102.748H134.213V104.8H136.186V102.566H138.4V100.634H136.306L136.246 98.4004H134.153V100.634H132V102.748Z" fill="white"/>
<defs>
<filter id="filter0_d_74:371" x="1.97083" y="0.859209" width="332.058" height="344.12" filterUnits="userSpaceOnUse" color-interpolation-filters="sRGB">
<feFlood flood-opacity="0" result="BackgroundImageFix"/>
<feColorMatrix in="SourceAlpha" type="matrix" values="0 0 0 0 0 0 0 0 0 0 0 0 0 0 0 0 0 0 127 0" result="hardAlpha"/>
<feOffset dy="4.91938"/>
<feGaussianBlur stdDeviation="6.14923"/>
<feComposite in2="hardAlpha" operator="out"/>
<feColorMatrix type="matrix" values="0 0 0 0 0 0 0 0 0 0 0 0 0 0 0 0 0 0 0.15 0"/>
<feBlend mode="normal" in2="BackgroundImageFix" result="effect1_dropShadow_74:371"/>
<feBlend mode="normal" in="SourceGraphic" in2="effect1_dropShadow_74:371" result="shape"/>
</filter>
<linearGradient id="paint0_linear_74:371" x1="128.551" y1="17.4149" x2="199.378" y2="315.346" gradientUnits="userSpaceOnUse">
<stop offset="0.0615138" stop-color="#FF8049"/>
<stop offset="1" stop-color="#FF273E"/>
</linearGradient>
<clipPath id="clip0_74:371">
<rect width="75.9606" height="87.1312" fill="white" transform="translate(108 129.6)"/>
</clipPath>
</defs>
</svg>
