<svg width="332" height="341" viewBox="0 0 332 341" fill="none" xmlns="http://www.w3.org/2000/svg">
<g filter="url(#filter0_d_74:408)">
<path d="M226.76 60.7602L287.52 166L226.76 271.24L105.24 271.24L44.4794 166L105.24 60.7602L226.76 60.7602Z" fill="url(#paint0_linear_74:408)"/>
</g>
<path d="M159.438 188.459C157.764 181.493 152.869 175.775 146.422 172.967C148.894 169.789 150.376 165.799 150.376 161.461C150.376 159.521 150.073 157.656 149.523 155.902H159.426C168.151 155.902 175.252 163.004 175.251 171.728V171.728V184.857L175.21 184.878C175.21 184.878 175.209 184.878 175.209 184.879C174.949 185.01 169.331 187.786 159.438 188.459ZM151.813 192.205V205.335L151.774 205.355C151.773 205.355 151.772 205.356 151.772 205.356C151.459 205.513 144.24 209.088 131.673 209.088C125.278 209.088 117.484 208.164 108.493 205.381V192.205C108.493 183.481 115.594 176.379 124.319 176.379H135.988C144.712 176.379 151.813 183.481 151.813 192.205ZM118.181 159.913C118.181 153.301 123.541 147.941 130.153 147.941C136.765 147.941 142.125 153.301 142.125 159.913C142.125 166.525 136.765 171.885 130.153 171.885C123.541 171.885 118.181 166.525 118.181 159.913ZM165.564 139.435C165.564 146.047 160.204 151.407 153.592 151.407C146.981 151.407 141.62 146.047 141.62 139.435C141.62 132.824 146.98 127.464 153.592 127.464C160.204 127.464 165.564 132.824 165.564 139.435Z" stroke="white" stroke-width="3.55714"/>
<path d="M176.276 227.532H184.905V235.562H192.942V226.779H201.571V219.05H193.238L193.139 210.267H184.806L184.708 219.05H176.276V227.532Z" fill="white"/>
<path d="M204.733 198.906H211.202V203.943H217.236V198.455H223.704V193.622H217.477L217.381 188.134H211.153L211.057 193.622H204.733V198.906Z" fill="white"/>
<path d="M201.571 129.358H205.898V134.381H209.892V128.882H214.219V124.07H210.059L209.975 118.571H205.815L205.773 124.07H201.571V129.358Z" fill="white"/>
<path d="M214.219 160.999H219.62V166.001H224.627V160.508H230.028V155.685H224.802L224.758 150.191H219.533L219.489 155.685H214.219V160.999Z" fill="white"/>
<path d="M182.6 109.23H185.856V112.248H188.829V108.943H192.085V106.068H188.971L188.923 102.763H185.809L185.762 106.068H182.6V109.23Z" fill="white"/>
<path d="M157.304 102.914H160.54V105.924H163.554V102.63H166.79V99.7329H163.665L163.609 96.4385H160.485V99.7329H157.304V102.914Z" fill="white"/>
<path d="M135.171 100.734H137.358V102.762H139.308V100.555H141.495V98.6458H139.427L139.368 96.4385H137.299V98.6458H135.171V100.734Z" fill="white"/>
<defs>
<filter id="filter0_d_74:408" x="1.86052" y="0.797076" width="328.279" height="340.197" filterUnits="userSpaceOnUse" color-interpolation-filters="sRGB">
<feFlood flood-opacity="0" result="BackgroundImageFix"/>
<feColorMatrix in="SourceAlpha" type="matrix" values="0 0 0 0 0 0 0 0 0 0 0 0 0 0 0 0 0 0 127 0" result="hardAlpha"/>
<feOffset dy="4.89554"/>
<feGaussianBlur stdDeviation="6.11942"/>
<feComposite in2="hardAlpha" operator="out"/>
<feColorMatrix type="matrix" values="0 0 0 0 0 0 0 0 0 0 0 0 0 0 0 0 0 0 0.15 0"/>
<feBlend mode="normal" in2="BackgroundImageFix" result="effect1_dropShadow_74:408"/>
<feBlend mode="normal" in="SourceGraphic" in2="effect1_dropShadow_74:408" result="shape"/>
</filter>
<linearGradient id="paint0_linear_74:408" x1="127.021" y1="17.2076" x2="197.005" y2="311.592" gradientUnits="userSpaceOnUse">
<stop offset="0.0615138" stop-color="#FF8049"/>
<stop offset="1" stop-color="#FF273E"/>
</linearGradient>
</defs>
</svg>
