<svg width="95" height="95" viewBox="0 0 95 95" fill="none" xmlns="http://www.w3.org/2000/svg">
<path d="M52.8521 95H11.9466C7.72394 95 4.30078 91.5768 4.30078 87.3542V7.64583C4.30078 3.42315 7.72394 0 11.9466 0H52.8521C57.0748 0 60.4979 3.42315 60.4979 7.64583V87.3542C60.4979 91.5768 57.0748 95 52.8521 95Z" fill="#323477"/>
<path d="M52.852 0H47.1177C51.3404 0 54.7635 3.42315 54.7635 7.64583V87.3542C54.7635 91.5769 51.3404 95 47.1177 95H52.852C57.0747 95 60.4978 91.5769 60.4978 87.3542V7.64583C60.4978 3.42315 57.0747 0 52.852 0Z" fill="#3D446B"/>
<path d="M55.5283 7.64587V87.3542C55.5283 88.8321 54.3302 90.0303 52.8521 90.0303H11.9467C10.4688 90.0303 9.27051 88.8323 9.27051 87.3542V7.64587C9.27051 6.16799 10.4686 4.96973 11.9467 4.96973H19.6123C20.058 4.96973 20.4543 5.2525 20.5994 5.67388L21.6096 8.60849C21.7547 9.02986 22.151 9.31264 22.5967 9.31264H42.2023C42.648 9.31264 43.0443 9.02986 43.1894 8.60849L44.1995 5.67388C44.3446 5.2525 44.7409 4.96973 45.1866 4.96973H52.8523C54.33 4.96991 55.5283 6.16799 55.5283 7.64587Z" fill="#7678AF" fill-opacity="0.41"/>
<path d="M52.852 4.96997H47.1177C48.5956 4.96997 49.7938 6.16805 49.7938 7.64611V87.3545C49.7938 88.8323 48.5957 90.0306 47.1177 90.0306H52.852C54.3299 90.0306 55.5281 88.8325 55.5281 87.3545V7.64593C55.5281 6.16805 54.3299 4.96997 52.852 4.96997Z" fill="#545693"/>
<path d="M39.8542 77.7013H24.9448C22.7279 77.7013 20.9307 75.9041 20.9307 73.6872C20.9307 71.4703 22.7279 69.6731 24.9448 69.6731H39.8542C42.0711 69.6731 43.8683 71.4703 43.8683 73.6872C43.8683 75.9041 42.0711 77.7013 39.8542 77.7013Z" fill="#323477"/>
<path d="M86.9468 61.0714H21.0509C18.9785 61.0714 17.2986 59.3915 17.2986 57.3191V18.9484C17.2986 16.876 18.9785 15.196 21.0509 15.196H86.9466C89.0189 15.196 90.6989 16.876 90.6989 18.9484V57.3191C90.6991 59.3915 89.0191 61.0714 86.9468 61.0714Z" fill="#7678AF"/>
<path d="M86.947 15.196H81.2126C83.285 15.196 84.965 16.876 84.965 18.9484V57.3191C84.965 59.3915 83.285 61.0714 81.2126 61.0714H86.947C89.0193 61.0714 90.6993 59.3915 90.6993 57.3191V18.9484C90.6993 16.8762 89.0193 15.196 86.947 15.196Z" fill="#62649F"/>
<path d="M71.356 43.1321C71.3514 43.1196 71.3464 43.107 71.3414 43.0946C71.0872 42.4761 70.4912 42.0767 69.8225 42.0767H69.8217C69.1528 42.0768 68.5565 42.4771 68.3026 43.0961C68.2984 43.1068 68.2939 43.1176 68.2898 43.1287L64.1384 54.0288C63.8647 54.7469 64.2254 55.5509 64.9437 55.8246C65.1066 55.8867 65.274 55.916 65.4387 55.916C65.9993 55.916 66.5279 55.5746 66.7394 55.0193L67.4319 53.2009H72.181L72.8658 55.0154C73.1371 55.7344 73.9401 56.0975 74.6591 55.8259C75.3781 55.5546 75.741 54.7517 75.4696 54.0326L71.356 43.1321ZM68.4921 50.4177L69.8176 46.9376L71.1309 50.4177H68.4921Z" fill="#F8F7F7"/>
<path d="M83.7158 42.3298C83.0718 41.9103 82.2095 42.0929 81.7904 42.7367L79.4523 46.3284L77.0877 42.707C76.6674 42.0634 75.805 41.8827 75.1617 42.3027C74.5182 42.723 74.3371 43.585 74.7572 44.2287L78.0614 49.2888L78.0484 54.5203C78.0466 55.289 78.6682 55.9135 79.4365 55.9154H79.4401C80.2071 55.9154 80.8298 55.2945 80.8317 54.5273L80.8446 49.291L84.1227 44.2552C84.542 43.611 84.3598 42.749 83.7158 42.3298Z" fill="#F8F7F7"/>
<path d="M60.503 42.0771H57.4246C57.0548 42.0771 56.7002 42.2245 56.4389 42.4863C56.1779 42.7483 56.0317 43.1034 56.033 43.4732V54.5246C56.033 55.2933 56.6558 55.9162 57.4246 55.9162C58.1933 55.9162 58.8162 55.2933 58.8162 54.5246V51.1064C59.4329 51.1033 60.1105 51.1003 60.503 51.1003C63.0244 51.1003 65.0758 49.0763 65.0758 46.5887C65.0758 44.1011 63.0244 42.0771 60.503 42.0771ZM60.503 48.3169C60.1131 48.3169 59.4441 48.3199 58.8301 48.3228C58.8267 47.6875 58.824 46.9891 58.824 46.5884C58.824 46.2486 58.8221 45.5254 58.8203 44.8602H60.5028C61.4728 44.8602 62.2924 45.6517 62.2924 46.5884C62.2926 47.5255 61.473 48.3169 60.503 48.3169Z" fill="#F8F7F7"/>
<path d="M38.8983 32.5907H27.0473C26.4138 32.5907 25.9004 32.0773 25.9004 31.4438V23.798C25.9004 23.1645 26.4138 22.6511 27.0473 22.6511H38.8983C39.5318 22.6511 40.0452 23.1645 40.0452 23.798V31.4438C40.0452 32.0773 39.5318 32.5907 38.8983 32.5907Z" fill="#BBBBBB"/>
<path d="M34.1195 53.9657H17.2986V44.0261H34.1195C36.8643 44.0261 39.0894 46.2512 39.0894 48.996C39.0894 51.7406 36.8643 53.9657 34.1195 53.9657Z" fill="#BBBBBB"/>
<path d="M52.3557 24.7131C51.587 24.7131 50.9641 25.336 50.9641 26.1047V28.3985C50.9641 29.1672 51.587 29.7901 52.3557 29.7901C53.1244 29.7901 53.7473 29.1672 53.7473 28.3985V26.1047C53.7473 25.3362 53.1242 24.7131 52.3557 24.7131Z" fill="#F8F7F7"/>
<path d="M76.001 24.7131C75.2323 24.7131 74.6094 25.336 74.6094 26.1047V28.3985C74.6094 29.1672 75.2323 29.7901 76.001 29.7901C76.7697 29.7901 77.3926 29.1672 77.3926 28.3985V26.1047C77.3926 25.3362 76.7697 24.7131 76.001 24.7131Z" fill="#F8F7F7"/>
<path d="M81.1116 24.7131C80.3429 24.7131 79.72 25.336 79.72 26.1047V28.3985C79.72 29.1672 80.3429 29.7901 81.1116 29.7901C81.8803 29.7901 82.5032 29.1672 82.5032 28.3985V26.1047C82.5032 25.3362 81.8803 24.7131 81.1116 24.7131Z" fill="#F8F7F7"/>
<path d="M59.7759 24.7131C59.0072 24.7131 58.3843 25.336 58.3843 26.1047V28.3985C58.3843 29.1672 59.0072 29.7901 59.7759 29.7901C60.5446 29.7901 61.1675 29.1672 61.1675 28.3985V26.1047C61.1675 25.3362 60.5446 24.7131 59.7759 24.7131Z" fill="#F8F7F7"/>
<path d="M65.1924 24.7131C64.4237 24.7131 63.8008 25.336 63.8008 26.1047V28.3985C63.8008 29.1672 64.4237 29.7901 65.1924 29.7901C65.9611 29.7901 66.584 29.1672 66.584 28.3985V26.1047C66.584 25.3362 65.9609 24.7131 65.1924 24.7131Z" fill="#F8F7F7"/>
</svg>
