<svg width="96" height="96" viewBox="0 0 96 96" fill="none" xmlns="http://www.w3.org/2000/svg">
<g clip-path="url(#clip0)">
<path d="M87.8889 44.3736H69.2409C68.9489 40.0436 67.3458 36.028 64.8035 32.7557L69.5656 27.9928H80.126C80.9262 27.9928 81.5746 27.3443 81.5746 26.5442C81.5746 25.7441 80.926 25.0956 80.126 25.0956H70.414V13.7419C70.414 12.9418 69.7655 12.2933 68.9654 12.2933C68.1654 12.2933 67.5168 12.9418 67.5168 13.7419V25.9442L62.8722 30.5895C59.3845 27.1721 54.7164 24.9257 49.4757 24.555C49.4574 24.5537 49.4388 24.5528 49.4204 24.5516V5.45571C49.4204 4.65564 48.7719 4.00708 47.9718 4.00708C47.1717 4.00708 46.5232 4.65564 46.5232 5.45571V24.5505C41.6624 24.8766 37.072 26.8519 33.4683 30.1965C33.3314 30.3235 33.197 30.4525 33.0639 30.5826L28.4266 25.9446V13.7419C28.4266 12.9418 27.778 12.2933 26.978 12.2933C26.1777 12.2933 25.5294 12.9418 25.5294 13.7419V25.0956H15.7962C14.996 25.0956 14.3476 25.7441 14.3476 26.5442C14.3476 27.3443 14.9962 27.9928 15.7962 27.9928H26.3774L31.1304 32.7463C28.5535 36.0585 27.0069 40.0648 26.7061 44.3179C26.7048 44.3365 26.704 44.3548 26.7029 44.3734H8.11098C7.31073 44.3734 6.66235 45.022 6.66235 45.822C6.66235 46.6221 7.31092 47.2706 8.11098 47.2706H26.6999C27.0042 51.8811 28.7902 56.2463 31.8708 59.796C32.9529 61.0429 34.1722 62.1608 35.4946 63.1185C35.7513 63.3043 36.0485 63.394 36.343 63.394C36.7917 63.394 37.2342 63.186 37.5175 62.7949C37.9869 62.1469 37.8419 61.2411 37.1939 60.7718C36.0507 59.944 34.9962 58.9768 34.0591 57.8972C30.8343 54.181 29.2494 49.431 29.5964 44.5223C29.9274 39.8432 32.0022 35.5097 35.4391 32.3198C38.8584 29.1463 43.3049 27.3988 47.959 27.3988C58.4917 27.3988 67.0899 36.6118 66.3468 47.1218C66.1098 50.4705 64.97 53.6828 63.0502 56.4111C62.5897 57.0655 62.747 57.969 63.4012 58.4295C64.0557 58.89 64.9595 58.7327 65.4198 58.0783C67.6428 54.919 68.9628 51.2008 69.2369 47.3261C69.2382 47.3078 69.2388 47.2894 69.2401 47.271H87.8889C88.6891 47.271 89.3375 46.6225 89.3375 45.8224C89.3375 45.0223 88.6889 44.3736 87.8889 44.3736Z" fill="#BBBBBB"/>
<path d="M47.9716 57.9675C54.6782 57.9675 60.115 52.5299 60.115 45.8224C60.115 39.1148 54.6782 33.6772 47.9716 33.6772C41.2649 33.6772 35.8281 39.1148 35.8281 45.8224C35.8281 52.5299 41.2649 57.9675 47.9716 57.9675Z" fill="#7678AF"/>
<path d="M48.8281 33.7074C47.5319 33.6157 46.2691 33.732 45.0715 34.0262C50.716 35.4047 54.7137 40.6873 54.29 46.6792C53.9086 52.0736 50.0598 56.3943 45.0768 57.6187C45.7353 57.7796 46.4159 57.888 47.1149 57.9375C53.8049 58.4107 59.6116 53.3702 60.0848 46.6794C60.5577 39.9883 55.5179 34.1807 48.8281 33.7074Z" fill="#62649F"/>
<path d="M65.6243 95.9999V89.7676C68.5493 87.4371 70.2321 83.8848 70.183 80.1449L70.0592 68.791C70.02 65.8032 67.59 63.4 64.6022 63.3942L51.238 63.3685V47.9493C51.238 46.0559 49.7661 44.4394 47.874 44.3763C45.8959 44.3103 44.2718 45.8943 44.2718 47.8579V77.0986L37.7556 69.1968C36.5078 67.7326 34.3093 67.5573 32.8453 68.8053C31.3813 70.0533 31.206 72.2521 32.4538 73.7163L44.6383 88.2694V95.9999H65.6243Z" fill="#FFDFBD"/>
<path d="M70.0593 68.7911C70.0201 65.8031 67.5901 63.3999 64.6025 63.3943H58.8076C61.7952 63.4001 64.2252 65.8033 64.2644 68.7911L64.3882 80.145C64.4373 83.8849 62.7545 87.4372 59.8295 89.7677V96H65.6242V89.7677C68.5492 87.4372 70.232 83.8849 70.1829 80.145L70.0593 68.7911Z" fill="#F7C794"/>
<path d="M49.7896 63.3684V68.0493C49.7896 68.8494 50.4381 69.498 51.2382 69.498C52.0384 69.498 52.6868 68.8494 52.6868 68.0493V63.3684H49.7896Z" fill="#F7C794"/>
<path d="M55.9102 63.4045V68.0495C55.9102 68.8495 56.5587 69.4981 57.3588 69.4981C58.159 69.4981 58.8074 68.8495 58.8074 68.0495V63.4045H55.9102Z" fill="#F7C794"/>
<path d="M62.0312 63.4045V68.0495C62.0312 68.8495 62.6798 69.4981 63.4799 69.4981C64.2801 69.4981 64.9285 68.8495 64.9285 68.0495V63.4045H62.0312Z" fill="#F7C794"/>
<path d="M47.9716 9.31875C50.5445 9.31875 52.6304 7.23268 52.6304 4.65938C52.6304 2.08607 50.5445 0 47.9716 0C45.3986 0 43.3127 2.08607 43.3127 4.65938C43.3127 7.23268 45.3986 9.31875 47.9716 9.31875Z" fill="#7678AF"/>
<path d="M26.9774 15.6735C29.0116 15.6735 30.6607 14.0242 30.6607 11.9897C30.6607 9.95521 29.0116 8.30591 26.9774 8.30591C24.9432 8.30591 23.2942 9.95521 23.2942 11.9897C23.2942 14.0242 24.9432 15.6735 26.9774 15.6735Z" fill="#62649F"/>
<path d="M6.35952 49.5063C8.39372 49.5063 10.0428 47.857 10.0428 45.8225C10.0428 43.788 8.39372 42.1387 6.35952 42.1387C4.32532 42.1387 2.67627 43.788 2.67627 45.8225C2.67627 47.857 4.32532 49.5063 6.35952 49.5063Z" fill="#62649F"/>
<path d="M89.6405 49.5063C91.6747 49.5063 93.3238 47.857 93.3238 45.8225C93.3238 43.788 91.6747 42.1387 89.6405 42.1387C87.6063 42.1387 85.9573 43.788 85.9573 45.8225C85.9573 47.857 87.6063 49.5063 89.6405 49.5063Z" fill="#62649F"/>
<path d="M68.9655 15.6735C70.9997 15.6735 72.6487 14.0242 72.6487 11.9897C72.6487 9.95521 70.9997 8.30591 68.9655 8.30591C66.9313 8.30591 65.2822 9.95521 65.2822 11.9897C65.2822 14.0242 66.9313 15.6735 68.9655 15.6735Z" fill="#62649F"/>
<path d="M13.0184 31.2038C15.5914 31.2038 17.6772 29.1177 17.6772 26.5444C17.6772 23.9711 15.5914 21.885 13.0184 21.885C10.4454 21.885 8.35962 23.9711 8.35962 26.5444C8.35962 29.1177 10.4454 31.2038 13.0184 31.2038Z" fill="#7678AF"/>
<path d="M82.9403 31.2038C85.5133 31.2038 87.5991 29.1177 87.5991 26.5444C87.5991 23.9711 85.5133 21.885 82.9403 21.885C80.3673 21.885 78.2815 23.9711 78.2815 26.5444C78.2815 29.1177 80.3673 31.2038 82.9403 31.2038Z" fill="#7678AF"/>
</g>
<defs>
<clipPath id="clip0">
<rect width="96" height="96" fill="white"/>
</clipPath>
</defs>
</svg>
