<svg width="97" height="88" viewBox="0 0 97 88" fill="none" xmlns="http://www.w3.org/2000/svg">
<path fill-rule="evenodd" clip-rule="evenodd" d="M59.1848 24.0049H47.6759C46.7678 24.0049 46.0317 23.3332 46.0317 22.5047C46.0317 21.6761 46.7678 21.0045 47.6759 21.0045H59.1848C60.0929 21.0045 60.829 20.3328 60.829 19.5043V9.00289C60.829 8.17435 61.5651 7.50269 62.4731 7.50269C63.3811 7.50269 64.1172 8.17435 64.1172 9.00289V19.5043C64.1172 21.9899 61.9089 24.0049 59.1848 24.0049Z" fill="#BDC3C7"/>
<path fill-rule="evenodd" clip-rule="evenodd" d="M67.4055 30.0059H47.6759C46.7678 30.0059 46.0317 29.3342 46.0317 28.5057C46.0317 27.6772 46.7678 27.0056 47.6759 27.0056H67.4055C68.3135 27.0056 69.0496 27.6772 69.0496 28.5057C69.0496 29.3342 68.3135 30.0059 67.4055 30.0059Z" fill="#BDC3C7"/>
<path fill-rule="evenodd" clip-rule="evenodd" d="M62.4731 79.5129C61.5651 79.5129 60.829 78.8413 60.829 78.0127V67.5112C60.829 66.6826 60.0929 66.0109 59.1848 66.0109H47.6759C46.7678 66.0109 46.0317 65.3393 46.0317 64.5107C46.0317 63.6822 46.7678 63.0105 47.6759 63.0105H59.1848C61.9089 63.0105 64.1172 65.0255 64.1172 67.5112V78.0127C64.1172 78.8413 63.3811 79.5129 62.4731 79.5129Z" fill="#BDC3C7"/>
<path fill-rule="evenodd" clip-rule="evenodd" d="M67.4055 60.01H47.6759C46.7678 60.01 46.0317 59.3383 46.0317 58.5096C46.0317 57.681 46.7678 57.0093 47.6759 57.0093H67.4055C68.3135 57.0093 69.0496 57.681 69.0496 58.5096C69.0496 59.3383 68.3135 60.01 67.4055 60.01Z" fill="#BDC3C7"/>
<path fill-rule="evenodd" clip-rule="evenodd" d="M88.7792 45.0078H47.6759C46.7678 45.0078 46.0317 44.3362 46.0317 43.5077C46.0317 42.6792 46.7678 42.0076 47.6759 42.0076H88.7792C89.6872 42.0076 90.4233 42.6792 90.4233 43.5077C90.4233 44.3362 89.6872 45.0078 88.7792 45.0078Z" fill="#BDC3C7"/>
<path fill-rule="evenodd" clip-rule="evenodd" d="M78.9145 64.5105C78.0064 64.5105 77.2703 63.8388 77.2703 63.0103V54.0091C77.2703 53.1806 76.5342 52.5089 75.6262 52.5089H47.6759C46.7678 52.5089 46.0317 51.8373 46.0317 51.0087C46.0317 50.1802 46.7678 49.5085 47.6759 49.5085H75.6262C78.3503 49.5085 80.5586 51.5235 80.5586 54.0091V63.0103C80.5586 63.8388 79.8225 64.5105 78.9145 64.5105Z" fill="#BDC3C7"/>
<path fill-rule="evenodd" clip-rule="evenodd" d="M75.6262 37.5071H47.6759C46.7678 37.5071 46.0317 36.8354 46.0317 36.0069C46.0317 35.1783 46.7678 34.5066 47.6759 34.5066H75.6262C76.5342 34.5066 77.2703 33.835 77.2703 33.0064V24.0051C77.2703 23.1766 78.0064 22.5049 78.9145 22.5049C79.8225 22.5049 80.5586 23.1766 80.5586 24.0051V33.0064C80.5586 35.4921 78.3503 37.5071 75.6262 37.5071Z" fill="#BDC3C7"/>
<path fill-rule="evenodd" clip-rule="evenodd" d="M16.4375 43.5076C16.4353 58.6878 29.4637 71.2101 46.0779 71.9965C46.9657 72.0239 47.6712 72.6862 47.676 73.4967V85.5134C47.6734 85.9253 47.4866 86.3184 47.1588 86.6016C46.831 86.8848 46.3907 87.0336 45.9398 87.0136C45.0191 86.9776 44.105 86.9146 43.204 86.8216C41.9033 86.6727 40.8693 85.7537 40.672 84.5713L39.6362 78.791C34.7919 77.878 30.1827 76.1305 26.0557 73.6423L20.8273 77.0642C19.7678 77.7755 18.3209 77.7632 17.276 77.0342C16.1415 76.1641 15.04 75.264 13.9713 74.2873C12.9119 73.3266 11.9077 72.3167 10.9625 71.2614C10.1619 70.3074 10.1485 68.9854 10.9296 68.018L14.6783 63.2503C11.9529 59.4808 10.039 55.2723 9.03888 50.8496L2.70896 49.903C1.39464 49.703 0.386748 48.7294 0.242762 47.5207C-0.0809207 44.8284 -0.0809207 42.1119 0.242762 39.4196C0.405698 38.2324 1.41279 37.2884 2.70896 37.1077L9.03888 36.1626C10.039 31.7399 11.9529 27.5314 14.6783 23.7619L10.9296 18.9913C10.1518 18.0251 10.1652 16.7067 10.9625 15.7538C11.899 14.6932 12.9037 13.6843 13.9713 12.7324C15.0204 11.7651 16.1234 10.8477 17.276 9.98402C18.3209 9.25499 19.7678 9.24277 20.8273 9.95402L26.0557 13.3775C30.183 10.8894 34.792 9.14147 39.6362 8.22728L40.672 2.44849C40.8731 1.26455 41.903 0.341932 43.204 0.180175C44.1028 0.0981639 45.0164 0.0386558 45.9448 0.00165069C46.3949 -0.0175666 46.8342 0.131672 47.161 0.414853C47.4878 0.698034 47.6738 1.09063 47.676 1.50186V13.5215C47.6712 14.332 46.9657 14.9943 46.0779 15.0217C29.4649 15.8081 16.437 28.3286 16.4375 43.5076Z" fill="#62649F"/>
<path fill-rule="evenodd" clip-rule="evenodd" d="M47.676 64.5767C47.68 64.9541 47.514 65.3165 47.2169 65.5791C46.9197 65.8417 46.5175 65.9815 46.1042 65.9659C33.1151 65.2151 23.0012 55.3835 23.0012 43.5077C23.0012 31.6319 33.1151 21.8002 46.1042 21.0495C46.5175 21.0339 46.9197 21.1737 47.2169 21.4363C47.514 21.6989 47.68 22.0613 47.676 22.4387V64.5767Z" fill="#7678AF"/>
<path fill-rule="evenodd" clip-rule="evenodd" d="M62.4732 10.5032C59.7491 10.5032 57.5408 8.48818 57.5408 6.00256C57.5408 3.51695 59.7491 1.50195 62.4732 1.50195C65.1973 1.50195 67.4056 3.51695 67.4056 6.00256C67.4056 7.1962 66.8859 8.34095 65.9609 9.18498C65.0359 10.029 63.7813 10.5032 62.4732 10.5032Z" fill="#7678AF"/>
<path fill-rule="evenodd" clip-rule="evenodd" d="M62.4732 85.5134C59.7491 85.5134 57.5408 83.4984 57.5408 81.0128C57.5408 78.5272 59.7491 76.5122 62.4732 76.5122C65.1973 76.5122 67.4056 78.5272 67.4056 81.0128C67.4056 83.4984 65.1973 85.5134 62.4732 85.5134Z" fill="#7678AF"/>
<path fill-rule="evenodd" clip-rule="evenodd" d="M78.9146 70.5112C76.1905 70.5112 73.9822 68.4963 73.9822 66.0107C73.9822 63.5252 76.1905 61.5103 78.9146 61.5103C81.6387 61.5103 83.847 63.5252 83.847 66.0107C83.847 68.4963 81.6387 70.5112 78.9146 70.5112Z" fill="#7678AF"/>
<path fill-rule="evenodd" clip-rule="evenodd" d="M92.0677 48.0083C89.3436 48.0083 87.1353 45.9933 87.1353 43.5077C87.1353 41.0221 89.3436 39.0071 92.0677 39.0071C94.7917 39.0071 97.0001 41.0221 97.0001 43.5077C97.0001 45.9933 94.7917 48.0083 92.0677 48.0083Z" fill="#7678AF"/>
<path fill-rule="evenodd" clip-rule="evenodd" d="M78.9146 25.5054C76.1905 25.5054 73.9822 23.4903 73.9822 21.0046C73.9822 18.519 76.1905 16.5039 78.9146 16.5039C81.6387 16.5039 83.847 18.519 83.847 21.0046C83.847 23.4903 81.6387 25.5054 78.9146 25.5054Z" fill="#7678AF"/>
</svg>
