<svg width="91" height="91" viewBox="0 0 91 91" fill="none" xmlns="http://www.w3.org/2000/svg">
<path d="M21.5059 87.6497H5.50977V74.3196H21.5059V87.6497Z" fill="#7678AF"/>
<path d="M42.834 87.6497H26.8379V63.6555H42.834V87.6497Z" fill="#7678AF"/>
<path d="M64.1621 87.6497H48.166V52.9915H64.1621V87.6497Z" fill="#7678AF"/>
<path d="M85.4902 87.6497H69.4941V42.3274H85.4902V87.6497Z" fill="#3E4081"/>
<path d="M76.7989 0.684326L52.698 15.2941L59.0964 18.28C58.8833 18.6533 58.6167 18.9732 58.4032 19.2931C54.8309 24.7853 50.4585 29.5839 45.4999 33.6363C35.7956 41.6343 23.7985 46.6998 11.0018 47.9261L11.2149 53.2048L14.9474 53.2582C22.8921 53.2582 34.3558 52.3519 45.4997 48.2461C46.5661 47.8728 47.5792 47.4464 48.6458 47.0199C60.4294 41.9544 68.5879 32.6767 73.653 25.1052L81.064 28.5175L76.7989 0.684326Z" fill="#3E4081"/>
<path d="M77.4922 42.3274H85.4902V87.6497H77.4922V42.3274Z" fill="#323477"/>
<path d="M56.1641 52.9915H64.1621V87.6497H56.1641V52.9915Z" fill="#62649F"/>
<path d="M34.8359 63.6555H42.834V87.6497H34.8359V63.6555Z" fill="#62649F"/>
<path d="M13.5078 74.3196H21.5059V87.6497H13.5078V74.3196Z" fill="#62649F"/>
<path d="M81.0643 28.5173L73.6533 25.105C68.5881 32.6763 60.4297 41.9541 48.6461 47.0197C47.5797 47.4464 46.5666 47.8726 45.5 48.2459V33.6361C50.4588 29.5838 54.8311 24.7851 58.4033 19.2929C58.6168 18.973 58.8834 18.6531 59.0965 18.2799L52.6981 15.2939L76.799 0.684326L81.0643 28.5173Z" fill="#323477"/>
<path d="M0 84.9836H91V90.3157H0V84.9836Z" fill="#4D4D80"/>
<path d="M45.5 84.9836H91V90.3157H45.5V84.9836Z" fill="#443D66"/>
</svg>
