<svg width="85" height="88" viewBox="0 0 85 88" fill="none" xmlns="http://www.w3.org/2000/svg">
<g filter="url(#filter0_d)">
<path d="M58.0561 15.5561L73.6122 42.5L58.0561 69.4439L26.9439 69.4439L11.3879 42.5L26.9439 15.5561L58.0561 15.5561Z" fill="white"/>
</g>
<path d="M45.131 58.4559H47.3402V60.5118H49.3979V58.2632H51.6072V56.2843H49.4737L49.4484 54.0356H47.315L47.2897 56.2843H45.131V58.4559Z" fill="url(#paint0_linear)"/>
<path d="M52.4167 51.1265H54.0729V52.4163H55.6178V51.0111H57.2739V49.7738H55.6796L55.6548 48.3687H54.0605L54.0358 49.7738H52.4167V51.1265Z" fill="url(#paint1_linear)"/>
<path d="M51.6072 33.3212H52.7149V34.6072H53.7375V33.1993H54.8453V31.9674H53.7801L53.7588 30.5596H52.6936L52.683 31.9674H51.6072V33.3212Z" fill="url(#paint2_linear)"/>
<path d="M54.8452 41.4213H56.2282V42.7019H57.5099V41.2955H58.8928V40.0607H57.5549L57.5436 38.6543H56.2057L56.1944 40.0607H54.8452V41.4213Z" fill="url(#paint3_linear)"/>
<path d="M46.75 28.1676H47.5837V28.9403H48.3449V28.094H49.1786V27.358H48.3811L48.369 26.5117H47.5716L47.5595 27.358H46.75V28.1676Z" fill="url(#paint4_linear)"/>
<path d="M40.2738 26.5504H41.1024V27.3211H41.8738V26.4777H42.7024V25.736H41.9024L41.8881 24.8926H41.0881V25.736H40.2738V26.5504Z" fill="url(#paint5_linear)"/>
<path d="M34.6072 25.9928H35.167V26.5121H35.6664V25.947H36.2262V25.4582H35.6966L35.6815 24.8931H35.1519V25.4582H34.6072V25.9928Z" fill="url(#paint6_linear)"/>
<path d="M44.5231 41.7815C44.0627 40.7452 43.3933 39.8151 42.557 39.0494L41.8668 38.4161C41.8434 38.3952 41.8152 38.3804 41.7847 38.3729C41.7542 38.3654 41.7223 38.3656 41.6919 38.3733C41.6614 38.381 41.6333 38.3961 41.6101 38.4172C41.5868 38.4383 41.5691 38.4648 41.5585 38.4944L41.2502 39.379C41.0581 39.934 40.7047 40.5008 40.2043 41.0582C40.1711 41.0937 40.1331 41.1032 40.1071 41.1056C40.081 41.108 40.0406 41.1032 40.0051 41.07C39.9719 41.0415 39.9553 40.9989 39.9576 40.9562C40.0454 39.5284 39.6185 37.9181 38.6841 36.1654C37.9109 34.7092 36.8365 33.5732 35.4942 32.7811L34.5147 32.2048C34.3866 32.1289 34.223 32.2285 34.2301 32.3779L34.2823 33.5163C34.3179 34.2942 34.2277 34.982 34.0143 35.5535C33.7534 36.2532 33.3787 36.903 32.8996 37.4864C32.5662 37.8919 32.1883 38.2586 31.7731 38.5798C30.773 39.3486 29.9597 40.3337 29.3943 41.4613C28.8303 42.5988 28.5365 43.8511 28.5358 45.1208C28.5358 46.2402 28.7563 47.3241 29.1927 48.3462C29.6141 49.3304 30.2222 50.2236 30.9833 50.9764C31.7517 51.7353 32.6435 52.333 33.6372 52.748C34.6665 53.1797 35.7574 53.3979 36.884 53.3979C38.0105 53.3979 39.1015 53.1797 40.1308 52.7504C41.122 52.3378 42.0235 51.736 42.7847 50.9788C43.5531 50.2198 44.1555 49.3328 44.5752 48.3486C45.011 47.3292 45.2345 46.2318 45.2322 45.1232C45.2322 43.9658 44.995 42.8416 44.5231 41.7815ZM41.651 49.8285C40.3774 51.0902 38.6864 51.7828 36.884 51.7828C35.0815 51.7828 33.3905 51.0902 32.117 49.8285C30.8481 48.5692 30.1485 46.8995 30.1485 45.1232C30.1485 44.0915 30.3809 43.1025 30.8386 42.1823C31.2845 41.2835 31.9486 40.4795 32.7549 39.8605C33.2692 39.4672 33.7356 39.0151 34.1447 38.5134C34.7376 37.79 35.2025 36.9837 35.525 36.118C35.6573 35.7609 35.7535 35.3915 35.812 35.0152C36.3836 35.5417 36.8626 36.1773 37.2634 36.922C38.0556 38.4066 38.4208 39.7277 38.3497 40.8518C38.3327 41.1166 38.3759 41.3817 38.4761 41.6274C38.5764 41.873 38.731 42.0928 38.9283 42.2701C39.0994 42.4246 39.2994 42.5435 39.5168 42.6201C39.7342 42.6966 39.9647 42.7292 40.1948 42.7159C40.662 42.6922 41.0913 42.4859 41.4044 42.1373C41.7198 41.7839 41.9925 41.4234 42.2202 41.0558C42.5522 41.4803 42.8297 41.9428 43.0503 42.4408C43.4274 43.2899 43.6195 44.1935 43.6195 45.1232C43.6195 46.8995 42.9198 48.5715 41.651 49.8285Z" fill="url(#paint7_linear)"/>
<path d="M41.651 49.8285C40.3774 51.0902 38.6864 51.7828 36.884 51.7828C35.0815 51.7828 33.3905 51.0902 32.117 49.8285C30.8481 48.5692 30.1485 46.8995 30.1485 45.1232C30.1485 44.0915 30.3809 43.1025 30.8386 42.1823C31.2845 41.2835 31.9486 40.4795 32.7549 39.8605C33.2692 39.4672 33.7356 39.0151 34.1447 38.5134C34.7376 37.79 35.2025 36.9837 35.525 36.118C35.6573 35.7609 35.7535 35.3915 35.812 35.0152C36.3836 35.5417 36.8626 36.1773 37.2634 36.922C38.0556 38.4066 38.4208 39.7277 38.3497 40.8518C38.3327 41.1166 38.3759 41.3817 38.4761 41.6274C38.5764 41.873 38.731 42.0928 38.9283 42.2701C39.0994 42.4246 39.2994 42.5435 39.5168 42.6201C39.7342 42.6966 39.9647 42.7292 40.1948 42.7159C40.662 42.6922 41.0913 42.4859 41.4044 42.1373C41.7198 41.7839 41.9925 41.4234 42.2202 41.0558C42.5522 41.4803 42.8297 41.9428 43.0503 42.4408C43.4274 43.2899 43.6195 44.1935 43.6195 45.1232C43.6195 46.8995 42.9198 48.5715 41.651 49.8285Z" fill="url(#paint8_linear)"/>
<defs>
<filter id="filter0_d" x="0.498647" y="0.217255" width="84.0028" height="87.0545" filterUnits="userSpaceOnUse" color-interpolation-filters="sRGB">
<feFlood flood-opacity="0" result="BackgroundImageFix"/>
<feColorMatrix in="SourceAlpha" type="matrix" values="0 0 0 0 0 0 0 0 0 0 0 0 0 0 0 0 0 0 127 0" result="hardAlpha"/>
<feOffset dy="1.24449"/>
<feGaussianBlur stdDeviation="1.55561"/>
<feComposite in2="hardAlpha" operator="out"/>
<feColorMatrix type="matrix" values="0 0 0 0 0 0 0 0 0 0 0 0 0 0 0 0 0 0 0.15 0"/>
<feBlend mode="normal" in2="BackgroundImageFix" result="effect1_dropShadow"/>
<feBlend mode="normal" in="SourceGraphic" in2="effect1_dropShadow" result="shape"/>
</filter>
<linearGradient id="paint0_linear" x1="45.4872" y1="54.3595" x2="51.0243" y2="60.2204" gradientUnits="userSpaceOnUse">
<stop offset="0.0615138" stop-color="#FF8049"/>
<stop offset="1" stop-color="#FF273E"/>
</linearGradient>
<linearGradient id="paint1_linear" x1="52.6839" y1="48.571" x2="56.0534" y2="52.8509" gradientUnits="userSpaceOnUse">
<stop offset="0.0615138" stop-color="#FF8049"/>
<stop offset="1" stop-color="#FF273E"/>
</linearGradient>
<linearGradient id="paint2_linear" x1="51.7853" y1="30.762" x2="55.2042" y2="33.657" gradientUnits="userSpaceOnUse">
<stop offset="0.0615138" stop-color="#FF8049"/>
<stop offset="1" stop-color="#FF273E"/>
</linearGradient>
<linearGradient id="paint3_linear" x1="55.0678" y1="38.8567" x2="58.5285" y2="42.5198" gradientUnits="userSpaceOnUse">
<stop offset="0.0615138" stop-color="#FF8049"/>
<stop offset="1" stop-color="#FF273E"/>
</linearGradient>
<linearGradient id="paint4_linear" x1="46.8836" y1="26.6331" x2="48.96" y2="28.831" gradientUnits="userSpaceOnUse">
<stop offset="0.0615138" stop-color="#FF8049"/>
<stop offset="1" stop-color="#FF273E"/>
</linearGradient>
<linearGradient id="paint5_linear" x1="40.4074" y1="25.014" x2="42.4838" y2="27.2119" gradientUnits="userSpaceOnUse">
<stop offset="0.0615138" stop-color="#FF8049"/>
<stop offset="1" stop-color="#FF273E"/>
</linearGradient>
<linearGradient id="paint6_linear" x1="34.6962" y1="24.974" x2="36.0805" y2="26.4393" gradientUnits="userSpaceOnUse">
<stop offset="0.0615138" stop-color="#FF8049"/>
<stop offset="1" stop-color="#FF273E"/>
</linearGradient>
<linearGradient id="paint7_linear" x1="29.4541" y1="33.2397" x2="47.3261" y2="48.1248" gradientUnits="userSpaceOnUse">
<stop offset="0.0615138" stop-color="#FF8049"/>
<stop offset="1" stop-color="#FF273E"/>
</linearGradient>
<linearGradient id="paint8_linear" x1="29.4541" y1="33.2397" x2="47.3261" y2="48.1248" gradientUnits="userSpaceOnUse">
<stop offset="0.0615138" stop-color="#FF8049"/>
<stop offset="1" stop-color="#FF273E"/>
</linearGradient>
</defs>
</svg>
