<svg width="99" height="99" viewBox="0 0 99 99" fill="none" xmlns="http://www.w3.org/2000/svg">
<g clip-path="url(#clip0)">
<path d="M54.4299 52.664C68.5657 52.664 80.0251 41.2046 80.0251 27.0688C80.0251 12.933 68.5657 1.47363 54.4299 1.47363C40.2941 1.47363 28.8347 12.933 28.8347 27.0688C28.8347 41.2046 40.2941 52.664 54.4299 52.664Z" fill="#323477"/>
<path d="M54.4299 46.8781C65.3703 46.8781 74.2392 38.0092 74.2392 27.0688C74.2392 16.1284 65.3703 7.25952 54.4299 7.25952C43.4895 7.25952 34.6206 16.1284 34.6206 27.0688C34.6206 38.0092 43.4895 46.8781 54.4299 46.8781Z" fill="#4E508E"/>
<path d="M54.43 7.25928C53.0621 7.25928 51.7266 7.39792 50.4369 7.66185C59.4633 9.50921 66.2531 17.4959 66.2531 27.0686C66.2531 36.6412 59.4633 44.6279 50.4369 46.4753C51.7268 46.7392 53.0621 46.8778 54.43 46.8778C65.3704 46.8778 74.2392 38.0088 74.2392 27.0686C74.2392 16.1283 65.3702 7.25928 54.43 7.25928Z" fill="#3B3C75"/>
<path d="M56.8912 25.5623C56.5228 25.432 56.1468 25.2964 55.7709 25.1557V18.4014C56.7307 18.669 57.2996 19.1515 57.3521 19.1973C57.951 19.7387 58.8756 19.6983 59.424 19.1037C59.9758 18.5055 59.9381 17.5733 59.3399 17.0214C59.2596 16.9474 57.9388 15.7594 55.7709 15.387V14.0039C55.7709 13.19 55.1111 12.5303 54.2973 12.5303C53.4834 12.5303 52.8237 13.19 52.8237 14.0039V15.4477C52.5768 15.4989 52.3248 15.5618 52.0673 15.6393C49.996 16.2635 48.4483 18.0358 48.0282 20.2648C47.6449 22.2982 48.2971 24.2596 49.7303 25.3836C50.5076 25.9933 51.4791 26.5502 52.8237 27.1415V35.6669C51.6113 35.5926 50.8833 35.3223 49.6037 34.4851C48.9225 34.0398 48.0094 34.2304 47.5637 34.9114C47.1182 35.5926 47.3091 36.5059 47.9901 36.9514C49.873 38.1833 51.148 38.5325 52.8235 38.6152V40.1333C52.8235 40.9471 53.4832 41.6069 54.2971 41.6069C55.1109 41.6069 55.7707 40.9471 55.7707 40.1333V38.4619C58.9201 37.771 60.7618 35.1429 61.1753 32.6839C61.7159 29.4687 60.0342 26.6734 56.8912 25.5623ZM51.549 23.0649C50.9852 22.6227 50.7456 21.7587 50.9245 20.8107C51.0889 19.9383 51.6751 18.8862 52.8237 18.4943V23.8716C52.342 23.6144 51.9072 23.3456 51.549 23.0649ZM58.2689 32.1955C58.0575 33.4533 57.2093 34.7867 55.7707 35.3774V28.2914C55.8173 28.308 55.8613 28.3241 55.9085 28.3409C58.5434 29.2723 58.3814 31.5269 58.2689 32.1955Z" fill="#7678AF"/>
<path d="M48.7681 59.7735C48.3262 59.7689 47.9009 59.8344 47.5016 59.9593C46.8119 60.1753 46.1074 59.6836 46.1074 58.961V35.8153C46.1074 33.6878 44.5252 31.8433 42.4077 31.6374C41.507 31.5498 40.6628 31.7588 39.9509 32.1713C41.1764 32.8813 42.003 34.2038 42.003 35.7221V62.438C42.003 64.3227 42.6666 66.1105 43.826 67.5197C44.4674 68.2991 44.8413 69.2638 44.8413 70.2733V75.9525C44.8413 79.5103 43.6881 82.9722 41.5544 85.8192L39.7268 88.2579C37.8158 90.8081 36.6941 93.8517 36.4805 97.0155H44.4666C44.6805 93.8517 45.8019 90.8079 47.7129 88.2579L49.5407 85.819C51.6743 82.972 52.8275 79.5103 52.8275 75.9525V63.9787C52.8275 61.7123 51.034 59.7975 48.7681 59.7735Z" fill="#F7C794"/>
<path d="M45.2443 67.5194C44.0849 66.1102 43.4213 64.3224 43.4213 62.4377V35.7219C43.4213 34.3502 42.4468 32.532 41.3551 31.6694C39.3963 31.9802 37.8988 33.6757 37.8988 35.7219V55.6094C37.8988 55.6087 37.8988 55.6079 37.8988 55.6069V55.6094H34.1255C34.1255 53.2002 32.4922 52.0619 31.755 52.0619C30.514 52.7951 29.6901 54.1726 29.6901 55.7079V60.1832H25.7753V59.6628C25.7753 58.3561 25.1614 56.5973 23.5463 56.1151C22.3053 56.8483 21.4814 58.2258 21.4814 59.7611V62.0346H17.5724C17.5724 58.8977 15.3376 58.487 15.3376 58.487C14.0966 59.2202 13.2727 60.5977 13.2727 62.133V75.4377C13.2727 77.6671 13.7257 79.8733 14.6046 81.9224L18.0986 90.1811C18.786 91.8059 19.1402 93.5524 19.1402 95.3166V97.015H37.899C38.1128 93.8513 39.2343 90.8074 41.1453 88.2574L42.9729 85.8186C45.1066 82.9715 46.2598 79.5094 46.2598 75.9516V70.2727C46.2596 69.2635 45.8857 68.2989 45.2443 67.5194Z" fill="#FFDFBD"/>
<path d="M29.6903 59.6631C29.6903 57.3604 27.7938 55.5004 25.4775 55.56C24.7725 55.5782 24.1159 55.7791 23.5463 56.1153C24.766 56.8267 25.5858 58.1491 25.5858 59.6631V61.1628C25.5858 63.4295 27.4233 65.267 29.6901 65.267L29.6903 59.6631Z" fill="#F7C794"/>
<path d="M17.2688 57.9321C16.5638 57.9502 15.9072 58.1511 15.3375 58.4872C16.5572 59.1986 17.3771 60.521 17.3771 62.0348V62.931C17.3771 65.1977 19.2146 67.0352 21.4813 67.0352V62.0346C21.4815 59.732 19.585 57.8723 17.2688 57.9321Z" fill="#F7C794"/>
<path d="M40.4319 96.4329V91.1753H18.5946C17.1769 91.1753 16.0276 92.3246 16.0276 93.7423V96.4329C16.0276 97.8506 17.1769 99 18.5946 99H37.865C39.2825 98.9998 40.4319 97.8506 40.4319 96.4329Z" fill="#7BA0B0"/>
<path d="M45.3925 91.1753H39.9734V96.4329C39.9734 97.8506 38.8241 99 37.4064 99H45.3925C46.8102 99 47.9595 97.8506 47.9595 96.4329V93.7423C47.9595 92.3246 46.8102 91.1753 45.3925 91.1753Z" fill="#688B96"/>
<path d="M18.9746 18.9723H17.5011V17.4987C17.5011 16.6849 16.8413 16.0251 16.0275 16.0251C15.2136 16.0251 14.5539 16.6849 14.5539 17.4987V18.9723H13.0803C12.2664 18.9723 11.6067 19.6321 11.6067 20.4459C11.6067 21.2598 12.2664 21.9195 13.0803 21.9195H14.5539V23.3931C14.5539 24.207 15.2136 24.8667 16.0275 24.8667C16.8413 24.8667 17.5011 24.207 17.5011 23.3931V21.9195H18.9746C19.7885 21.9195 20.4482 21.2598 20.4482 20.4459C20.4482 19.6321 19.7883 18.9723 18.9746 18.9723Z" fill="#7678AF"/>
<path d="M71.2663 60.6034H69.7927V59.1298C69.7927 58.316 69.1329 57.6562 68.3191 57.6562C67.5052 57.6562 66.8455 58.316 66.8455 59.1298V60.6034H65.3719C64.5581 60.6034 63.8983 61.2632 63.8983 62.077C63.8983 62.8909 64.5581 63.5506 65.3719 63.5506H66.8455V65.0242C66.8455 65.8381 67.5052 66.4978 68.3191 66.4978C69.1329 66.4978 69.7927 65.8381 69.7927 65.0242V63.5506H71.2663C72.0801 63.5506 72.7399 62.8909 72.7399 62.077C72.7399 61.2632 72.0803 60.6034 71.2663 60.6034Z" fill="#7678AF"/>
<path d="M85.9195 2.94718H84.4459V1.47359C84.4459 0.659742 83.7861 0 82.9723 0C82.1584 0 81.4987 0.659742 81.4987 1.47359V2.94718H80.0251C79.2113 2.94718 78.5515 3.60693 78.5515 4.42078C78.5515 5.23463 79.2113 5.89437 80.0251 5.89437H81.4987V7.36796C81.4987 8.18181 82.1584 8.84155 82.9723 8.84155C83.7861 8.84155 84.4459 8.18181 84.4459 7.36796V5.89437H85.9195C86.7333 5.89437 87.3931 5.23463 87.3931 4.42078C87.3931 3.60693 86.7335 2.94718 85.9195 2.94718Z" fill="#7678AF"/>
<path d="M33.6858 51.5068C32.9808 51.5249 32.3242 51.7258 31.7545 52.0619C32.9742 52.7733 33.7941 54.0957 33.7941 55.6097V59.3947C33.7941 61.6614 35.6316 63.4989 37.8983 63.4989V55.6097C37.8985 53.3069 36.002 51.4472 33.6858 51.5068Z" fill="#F7C794"/>
</g>
<defs>
<clipPath id="clip0">
<rect width="99" height="99" fill="white"/>
</clipPath>
</defs>
</svg>
